<?xml version="1.0" encoding="UTF-8" standalone="no" ?>
<svg xmlns="http://www.w3.org/2000/svg" xmlns:xlink="http://www.w3.org/1999/xlink" version="1.1" width="1080" height="1080" viewBox="0 0 1080 1080" xml:space="preserve">
<desc>Created with Fabric.js 5.2.4</desc>
<defs>
</defs>
<g transform="matrix(1 0 0 1 540 540)" id="2573834f-1162-4ab3-a046-710792356e1a"  >
</g>
<g transform="matrix(1 0 0 1 540 540)" id="2fc56c34-1dd4-46fd-9056-d4b3314e10e7"  >
<rect style="stroke: none; stroke-width: 1; stroke-dasharray: none; stroke-linecap: butt; stroke-dashoffset: 0; stroke-linejoin: miter; stroke-miterlimit: 4; fill: rgb(255,255,255); fill-rule: nonzero; opacity: 1; visibility: hidden;" vector-effect="non-scaling-stroke"  x="-540" y="-540" rx="0" ry="0" width="1080" height="1080" />
</g>
<g transform="matrix(1 0 0 1 540 540)"  >
<g style="" vector-effect="non-scaling-stroke"   >
		<g transform="matrix(6.25 0 0 6.25 121.54 0)"  >
<path style="stroke: none; stroke-width: 1; stroke-dasharray: none; stroke-linecap: butt; stroke-dashoffset: 0; stroke-linejoin: miter; stroke-miterlimit: 4; fill: rgb(0,240,197); fill-rule: nonzero; opacity: 1;" vector-effect="non-scaling-stroke"  transform=" translate(-83.2, -63)" d="M 121.59 60.83 L 107.66 56.339999999999996 C 98.75 53.4 93.53 46.19 91.08 37.129999999999995 L 84.95 7.27 C 84.79 6.68 84.4 5.89 83.2 5.89 C 82.19 5.89 81.61 6.68 81.45 7.27 L 75.32000000000001 37.14 C 72.86000000000001 46.2 67.65 53.41 58.74000000000001 56.35 L 44.81000000000001 60.84 C 42.84000000000001 61.480000000000004 42.81000000000001 64.26 44.77000000000001 64.93 L 58.80000000000001 69.76 C 67.68 72.71000000000001 72.86000000000001 79.91000000000001 75.32000000000001 88.93 L 81.46000000000001 118.46000000000001 C 81.62 119.05000000000001 81.95 120.11000000000001 83.21000000000001 120.11000000000001 C 84.54 120.11000000000001 84.80000000000001 119.05000000000001 84.96000000000001 118.46000000000001 L 91.10000000000001 88.93 C 93.56 79.9 98.74000000000001 72.7 107.62 69.76 L 121.65 64.93 C 123.59 64.25 123.56 61.470000000000006 121.59 60.830000000000005 z" stroke-linecap="round" />
</g>
		<g transform="matrix(6.25 0 0 6.25 248.66 -180.6)"  >
<path style="stroke: none; stroke-width: 1; stroke-dasharray: none; stroke-linecap: butt; stroke-dashoffset: 0; stroke-linejoin: miter; stroke-miterlimit: 4; fill: rgb(0,240,197); fill-rule: nonzero; opacity: 1;" vector-effect="non-scaling-stroke"  transform=" translate(-103.54, -34.1)" d="M 122.91 62.08 C 122.69 61.53 122.25999999999999 61.05 121.59 60.83 L 107.66 56.339999999999996 C 98.75 53.4 93.53 46.19 91.08 37.129999999999995 L 84.95 7.27 C 84.86 6.93 84.54 6.31 84.17 6.13 L 86.15 36.1 C 87.62 49.78 88.88000000000001 56.22 99.80000000000001 58.1 C 109.18 59.72 120.03000000000002 61.58 122.91000000000001 62.08 z" stroke-linecap="round" />
</g>
		<g transform="matrix(6.25 0 0 6.25 245.76 180.47)"  >
<path style="stroke: none; stroke-width: 1; stroke-dasharray: none; stroke-linecap: butt; stroke-dashoffset: 0; stroke-linejoin: miter; stroke-miterlimit: 4; fill: rgb(0,240,197); fill-rule: nonzero; opacity: 1;" vector-effect="non-scaling-stroke"  transform=" translate(-103.07, -91.88)" d="M 122.94 63.64 L 98.78 69.18 C 90.27 71.34 85.58 76.27000000000001 85.58 89.17 L 83.21 120.11 C 84.02 120.03 84.67999999999999 119.59 84.96 118.46 L 91.1 88.92999999999999 C 93.55999999999999 79.89999999999999 98.74 72.69999999999999 107.61999999999999 69.75999999999999 L 121.64999999999999 64.92999999999999 C 122.30999999999999 64.69 122.72999999999999 64.19999999999999 122.94 63.63999999999999 z" stroke-linecap="round" />
</g>
		<g transform="matrix(6.25 0 0 6.25 -229.43 168.66)"  >
<path style="stroke: none; stroke-width: 1; stroke-dasharray: none; stroke-linecap: butt; stroke-dashoffset: 0; stroke-linejoin: miter; stroke-miterlimit: 4; fill: rgb(0,240,197); fill-rule: nonzero; opacity: 1;" vector-effect="non-scaling-stroke"  transform=" translate(-27.05, -89.98)" d="M 41.81 86.81 C 33.480000000000004 84.06 32.72 80.96000000000001 31.32 75.73 L 27.83 63.49 C 27.619999999999997 62.7 25.56 62.7 25.339999999999996 63.49 L 22.97 74.8 C 21.56 80.00999999999999 18.56 84.14999999999999 13.44 85.84 L 5.279999999999999 89.38000000000001 C 4.1499999999999995 89.75000000000001 4.129999999999999 91.35000000000001 5.26 91.73 L 13.48 94.64 C 18.58 96.33 21.560000000000002 100.47 22.98 105.66 L 25.35 116.47999999999999 C 25.57 117.27 27.62 117.27 27.830000000000002 116.47999999999999 L 30.610000000000003 105.71 C 32.02 100.49 34.18 96.33999999999999 41.11 94.63999999999999 L 48.83 91.72999999999999 C 49.96 91.33999999999999 49.949999999999996 89.74 48.809999999999995 89.36999999999999 L 41.809999999999995 86.80999999999999 z" stroke-linecap="round" />
</g>
		<g transform="matrix(6.25 0 0 6.25 -159.59 83.66)"  >
<path style="stroke: none; stroke-width: 1; stroke-dasharray: none; stroke-linecap: butt; stroke-dashoffset: 0; stroke-linejoin: miter; stroke-miterlimit: 4; fill: rgb(0,240,197); fill-rule: nonzero; opacity: 1;" vector-effect="non-scaling-stroke"  transform=" translate(-38.22, -76.38)" d="M 28.49 75.55 C 29.34 83.41 29.77 85.59 36.14 87.22 L 49.41 89.81 C 49.269999999999996 89.62 49.06999999999999 89.46000000000001 48.8 89.38 L 41.8 86.81 C 34.489999999999995 84.31 32.47 81.13 31.099999999999998 74.77000000000001 C 29.729999999999997 68.41000000000001 28.269999999999996 64.26 28.269999999999996 64.26 C 27.759999999999994 62.89000000000001 27.029999999999998 62.96000000000001 27.029999999999998 62.96000000000001 L 28.49 75.55000000000001 z" stroke-linecap="round" />
</g>
		<g transform="matrix(6.25 0 0 6.25 -158.97 257.53)"  >
<path style="stroke: none; stroke-width: 1; stroke-dasharray: none; stroke-linecap: butt; stroke-dashoffset: 0; stroke-linejoin: miter; stroke-miterlimit: 4; fill: rgb(0,240,197); fill-rule: nonzero; opacity: 1;" vector-effect="non-scaling-stroke"  transform=" translate(-38.32, -104.2)" d="M 28.73 102.99 C 28.73 95.58 32.78 91.91 39.22 91.91 L 49.239999999999995 91.5 C 49.239999999999995 91.5 48.66 92.27 47.64999999999999 92.51 L 41.10999999999999 94.64 C 35.559999999999995 96.87 33.029999999999994 97.99 31.30999999999999 105.58 C 31.30999999999999 105.58 29.089999999999993 114.41 28.66999999999999 115.34 C 28.089999999999993 116.64 27.39999999999999 116.91 27.39999999999999 116.91 L 28.72999999999999 102.99 z" stroke-linecap="round" />
</g>
		<g transform="matrix(6.25 0 0 6.25 -116.56 -222.89)"  >
<path style="stroke: none; stroke-width: 1; stroke-dasharray: none; stroke-linecap: butt; stroke-dashoffset: 0; stroke-linejoin: miter; stroke-miterlimit: 10; fill: rgb(0,240,197); fill-rule: nonzero; opacity: 1;" vector-effect="non-scaling-stroke"  transform=" translate(-45.1, -27.34)" d="M 59.74 28.14 C 60.300000000000004 27.95 60.28 27.150000000000002 59.71 26.990000000000002 L 51.99 24.910000000000004 C 50.37488028593956 24.472037312849075 49.107389468719816 23.219726026374474 48.650000000000006 21.610000000000003 L 45.61 9.06 C 45.46 8.450000000000001 44.589999999999996 8.450000000000001 44.44 9.07 L 41.58 21.57 C 41.13998595544259 23.2258191870371 39.83965376392932 24.51467785921349 38.18 24.94 L 30.509999999999998 26.93 C 29.939999999999998 27.08 29.9 27.88 30.459999999999997 28.08 L 38.55 30.88 C 40 31.38 41.12 32.56 41.559999999999995 34.03 L 44.449999999999996 45.620000000000005 C 44.599999999999994 46.220000000000006 45.459999999999994 46.230000000000004 45.60999999999999 45.620000000000005 L 48.599999999999994 33.99 C 49.049230345014834 32.51744218472053 50.18117148739092 31.351989626945148 51.63999999999999 30.860000000000003 L 59.739999999999995 28.140000000000004 z" stroke-linecap="round" />
</g>
</g>
</g>
</svg>